<svg xmlns="http://www.w3.org/2000/svg" viewBox="0 0 48 48">
  <path
    fill="#EA4335"
    d="M24 9.5c3.54 0 6.74 1.22 9.25 3.6l6.9-6.9C35.96 2.34 30.38 0 24 0 14.82 0 6.73 5.27 2.56 12.95l8.03 6.24C12.49 13.11 17.77 9.5 24 9.5Z"
  />
  <path
    fill="#4285F4"
    d="M46.98 24.55c0-1.57-.15-3.09-.38-4.55H24v9.02h12.94c-.62 3-2.32 5.43-4.85 7.06l7.73 6C44.33 38.03 46.98 31.87 46.98 24.55Z"
  />
  <path
    fill="#FBBC05"
    d="M10.59 28.81A14.88 14.88 0 0 1 9.8 24c0-1.67.28-3.31.79-4.81l-8.03-6.24A23.9 23.9 0 0 0 0 24c0 4.09.98 7.96 2.56 11.05l8.03-6.24Z"
  />
  <path
    fill="#34A853"
    d="M24 48c6.48 0 11.93-2.13 15.82-5.92l-7.73-6c-2.14 1.47-4.92 2.42-8.09 2.42-6.08 0-11.25-3.86-13.41-9.31l-8.03 6.24C6.69 42.67 14.72 48 24 48Z"
  />
</svg>
